inDegrees=no
num_controls=7
num_derivatives=13
num_iterations=106
num_multipliers=7
num_parameters=0
num_slacks=7
num_states=26
objective=0.334215
objective_accelerations=0.036111
objective_balance=0.001222
objective_effort=0.027117
objective_height=0.268117
objective_ligament=0.001648
solver_duration=1107.122465
status=Solve_Succeeded
success=true
DataType=double
version=3
OpenSimVersion=4.5
endheader
time	/jointset/ground_pelvis/pelvis_tilt/value	/jointset/ground_pelvis/pelvis_tx/value	/jointset/ground_pelvis/pelvis_ty/value	/jointset/hip_r/hip_flexion_r/value	/jointset/hip_r/hip_adduction_r/value	/jointset/hip_r/hip_rotation_r/value	/jointset/back/lumbar_extension/value	/jointset/patellofemoral_r/patellar_flexion_r/value	/jointset/knee_r/knee_flexion_r/value	/jointset/knee_r/knee_adduction_r/value	/jointset/knee_r/knee_rotation_r/value	/jointset/ankle_r/ankle_angle_r/value	/jointset/subtalar_r/subtalar_angle_r/value	/jointset/ground_pelvis/pelvis_tilt/speed	/jointset/ground_pelvis/pelvis_tx/speed	/jointset/ground_pelvis/pelvis_ty/speed	/jointset/hip_r/hip_flexion_r/speed	/jointset/hip_r/hip_adduction_r/speed	/jointset/hip_r/hip_rotation_r/speed	/jointset/back/lumbar_extension/speed	/jointset/patellofemoral_r/patellar_flexion_r/speed	/jointset/knee_r/knee_flexion_r/speed	/jointset/knee_r/knee_adduction_r/speed	/jointset/knee_r/knee_rotation_r/speed	/jointset/ankle_r/ankle_angle_r/speed	/jointset/subtalar_r/subtalar_angle_r/speed	/forceset/tau_hip_flexion_r	/forceset/tau_hip_adduction_r	/forceset/tau_hip_rotation_r	/forceset/tau_knee_flexion_r	/forceset/tau_ankle_angle_r	/forceset/tau_subtalar_angle_r	/forceset/tau_lumbar_extension	lambda_cid13_p0	lambda_cid14_p0	lambda_cid14_p1	lambda_cid14_p2	lambda_cid14_p3	lambda_cid14_p4	lambda_cid14_p5	/jointset/ground_pelvis/pelvis_tilt/accel	/jointset/ground_pelvis/pelvis_tx/accel	/jointset/ground_pelvis/pelvis_ty/accel	/jointset/hip_r/hip_flexion_r/accel	/jointset/hip_r/hip_adduction_r/accel	/jointset/hip_r/hip_rotation_r/accel	/jointset/back/lumbar_extension/accel	/jointset/patellofemoral_r/patellar_flexion_r/accel	/jointset/knee_r/knee_flexion_r/accel	/jointset/knee_r/knee_adduction_r/accel	/jointset/knee_r/knee_rotation_r/accel	/jointset/ankle_r/ankle_angle_r/accel	/jointset/subtalar_r/subtalar_angle_r/accel	gamma_cid13_p0	gamma_cid14_p0	gamma_cid14_p1	gamma_cid14_p2	gamma_cid14_p3	gamma_cid14_p4	gamma_cid14_p5
1.5	-0.1061908119847432	0.04122334247005461	0.8179767935865605	0.8175759725782908	-0.2399626335941561	-0.08909367687607558	-0.6237139754836876	0.9346036011299221	0.9346036011299269	0.01600773927671735	0.1745202853995986	0.3050259022157643	0.1155968754765365	0.5090709346515704	0.2208741072471044	0.4997712381750334	-2.040406530817853	0.01228105203765287	-0.3293294680603445	0.8048216607106644	-1.952797573544835	-1.952797573544827	0.3188832093957973	5.740532089984426e-05	-0.5206109474724901	-0.1698487754641373	-0.170245624262088	0.009787057284640495	0.02708601973524833	-0.2859986464180847	-0.01068032584159954	-0.01052743148666834	0.2178438038982927	-9.159609298947649	-45.79732143160734	-11.43358076123959	0.9228875508437883	-0.9863044216747581	-629.2070758047989	55.65695409729985	0.1322640290278903	0.5353926508924405	-0.512514499710668	-0.9769957237097693	-0.1145943649094984	-0.2274170560862446	1.758257118299792	-1.330457819023423	-1.330457819023424	0.7508762477943846	-0.06022235771796112	-0.6459468329848214	-0.2560797964985549	3.918853989779946e-08	-1.525529610050049e-07	-2.837045550147101e-06	-1.384501384148445e-06	3.956644796185858e-07	3.49614254593005e-08	-1.77635741476481e-06
1.51	-0.1010939218354053	0.04345860020966545	0.8229478697295635	0.7971252592585353	-0.239845734876787	-0.09240232805964868	-0.6155793739621573	0.9150113696619263	0.9150113696619306	0.01923112204850704	0.1745206351821098	0.2997882172559166	0.1138857550325921	0.5102317865012611	0.2261478637070979	0.4943385575220856	-2.049463224266526	0.01109314504636911	-0.3324231467965455	0.8219797959458314	-1.965378388811783	-1.965378388811776	0.325747566543709	2.601336035834705e-05	-0.5268453273568262	-0.1723438978982205	-0.1626756569571278	0.008118548899547476	0.02685080161135635	-0.2824717185845604	-0.008504712563010716	-0.01115521306376006	0.2109892052682147	-10.19823385668874	-44.81985043980933	-11.40738528134306	0.7728543339928556	-1.110593474671246	-624.3515321459429	55.54627233023812	0.09668331767874087	0.5190036854867193	-0.5744592258265824	-0.8290912681295409	-0.1221027655592241	-0.3536913859897489	1.676764578618712	-1.181348235307696	-1.181348235307688	0.646986713098841	0.02707031662569374	-0.599992649384115	-0.2420880492674409	2.830973630901763e-08	-1.533734274355275e-07	-2.644180656324584e-06	-1.425508564029848e-06	3.757128818050191e-07	1.372751873810698e-08	-1.587170124551221e-06
1.52	-0.09598768565662393	0.0457457228222629	0.8278614561904892	0.7765921619817554	-0.2397409580091955	-0.09574258565130418	-0.6072767565177769	0.8953014390703056	0.8953014390703102	0.02252170264473857	0.1745210046313833	0.2944906266805804	0.112150511447826	0.510940140540519	0.2312470818444282	0.4882733017595623	-2.056883322222539	0.009856682082229866	-0.3356507496768548	0.8384248452807451	-1.976337398269817	-1.97633739826981	0.3323227742839921	6.133867373423739e-05	-0.5325920705702054	-0.1746734036284728	-0.1551056896521671	0.006450040514452087	0.02661558348745434	-0.2789447907510361	-0.006329099284422122	-0.01178299464085529	0.2041346066381373	-11.23878143643875	-43.84432350484592	-11.38148594280716	0.6228195914727386	-1.229563329041971	-619.5189791464778	55.43050432555303	0.04176446694127076	0.5004849863598454	-0.6390295216257205	-0.6496766251777467	-0.1243055594805952	-0.254201884907896	1.615639938249102	-1.00609665724053	-1.006096657240531	0.6930463662686531	-0.04687890293449964	-0.5484194987933453	-0.2229564557323233	2.302516620533627e-08	-1.564654760117302e-07	-2.57134197238007e-06	-1.492431450758295e-06	3.696205999493497e-07	-4.593346315846846e-09	-1.467825591434212e-06
1.53	-0.09087666210826252	0.0480828915482586	0.8327112794394627	0.7559931714887256	-0.2396487046200542	-0.09911557680216837	-0.598813381076964	0.8754901787779494	0.8754901787779537	0.0258766951583702	0.1745219502252466	0.2891380702501948	0.110392928696609	0.5111873509639803	0.2361494897126201	0.4815912555074846	-2.062629780170207	0.008585229767374225	-0.3389190258217695	0.8541158763770209	-1.98562642805221	-1.985626428052204	0.3386705322375517	0.0001170207945875381	-0.5378344185197504	-0.1768183876008611	-0.1475204942107819	0.004747548496844405	0.02626012069188989	-0.2755091335129268	-0.004191739933335985	-0.01239029075786553	0.1972486592753473	-12.27839103955695	-42.89366162776323	-11.34882224339413	0.4691677162382524	-1.306889758014872	-614.8781581591891	55.34634206836485	0.004600064950606706	0.4796192160490811	-0.697811650181857	-0.4944036387600302	-0.1303128381974581	-0.3588839708872703	1.525679719519451	-0.8470761239114718	-0.8470761239118406	0.6044667946485376	0.02979576052464251	-0.49933414261439	-0.2071676174075	2.368446917957411e-08	-1.619710806177178e-07	-2.626031136430932e-06	-1.586889776011727e-06	3.782538412989461e-07	-1.981910459835853e-08	-1.422688987732321e-06
1.54	-0.08576548630868737	0.05046798445873615	0.8374912783312787	0.7353452617643785	-0.2395695153082038	-0.1025203994128019	-0.590197126320348	0.8555946741907351	0.8555946741907395	0.02929493050848956	0.1745230534385021	0.2837356520003978	0.1086145164557851	0.5109705907835269	0.2408319187407975	0.4743084303280984	-2.066667168485823	0.007243866624141901	-0.3420170416308439	0.8690007084414071	-1.993186257241517	-1.993186257241514	0.3449713415810679	9.286255261686692e-05	-0.5425644344524664	-0.1788393015498657	-0.1399352987693958	0.003045056479237257	0.02590465789630724	-0.2720734762748172	-0.002054380582248825	-0.01299758687487416	0.1903627119125577	-13.31333911405406	-41.94554344314798	-11.31763831355069	0.3169345607633339	-1.373935179279342	-610.2655754464114	55.24937882006082	-0.05102965384172558	0.4564892183569861	-0.7591853070873894	-0.3078626987673152	-0.1382877251559301	-0.2201498177398205	1.454400131871157	-0.6602565386235935	-0.6602565386235931	0.6836566442599761	-0.06284697549931177	-0.4459530954274284	-0.1981424510555524	2.239977769984278e-08	-1.674998417345928e-07	-2.661711521873859e-06	-1.683108036242178e-06	3.842784270713129e-07	-3.364284843883812e-08	-1.365997765276713e-06
1.55	-0.08065880919238592	0.05289873410497631	0.8421955141401618	0.7146656326530803	-0.2395038849269459	-0.1059560377912543	-0.5814362216815776	0.8356323249956914	0.8356323249956923	0.03277513480434897	0.1745238234129475	0.2782886105326429	0.1068168596285722	0.5102864688353336	0.245273760537446	0.4664453174521168	-2.068960861478803	0.005880930202620475	-0.3451256517183592	0.8830280566754066	-1.998980307894126	-1.998980307894137	0.3510162945289486	7.742039414361654e-05	-0.5467499204275713	-0.1806543122118111	-0.1323194544788268	0.001324444459061025	0.02540723212696719	-0.2688169699166479	0.0001623313486072094	-0.0135807752800077	0.1834519826457153	-14.33958665670187	-40.98736730475552	-11.27356451395172	0.1618923929239435	-1.441360321952799	-605.9031144164101	55.20745165944574	-0.08887541173465248	0.4314719599513321	-0.8138969040369238	-0.1454778765263272	-0.1359664219175119	-0.3585112257020951	1.354077773493488	-0.4934916310973329	-0.4934916310995728	0.556515238639673	0.03113857591104353	-0.3906640326835888	-0.1681578397606348	1.887526652314707e-08	-1.730552831792294e-07	-2.675490488485905e-06	-1.781354047641802e-06	3.872973879394807e-07	-4.585122781349822e-08	-1.295993612517912e-06
1.56	-0.07556132768485281	0.05537259022910934	0.8468183142950487	0.6939719955564587	-0.2394520178741568	-0.1094232211948707	-0.5725396084396014	0.8156211328336165	0.8156211328336169	0.03631410875340282	0.1745248452481953	0.2728025506683106	0.1050020572015406	0.5091314690300835	0.2494532143193716	0.4580212995288132	-2.069468765550306	0.004491200930408779	-0.3483260466636627	0.8961424290825765	-2.002954850647447	-2.002954850647475	0.3567252722203322	0.0001432347129654757	-0.5503681137679375	-0.1822684215136208	-0.1247036101882583	-0.0003961675611170669	0.02490980635763903	-0.2655604635584775	0.002379043279463424	-0.01416396368514427	0.1765412533788724	-15.35433936954584	-40.03202571805654	-11.23229888486829	0.009940318111788582	-1.495226070414913	-601.570460077783	55.1432500788669	-0.1452052252531634	0.4040116154124619	-0.8713663165517636	0.04929508552783297	-0.143646295293985	-0.238506789297433	1.27180496650518	-0.2963549587663129	-0.2963549587663131	0.6164615929605789	-0.04659568004030983	-0.3324945684796007	-0.1579621790283783	3.246310057526463e-08	-1.34127984346176e-07	-2.425714212024053e-06	-1.446808562562032e-06	3.340536327787415e-07	8.096920394237282e-09	-1.177680096792391e-06
1.57	-0.0704777151503248	0.05788682670577255	0.8513541691647408	0.673282190245986	-0.2394144397747927	-0.1129204527286106	-0.5635167044896949	0.7955793940663682	0.7955793940663668	0.03991071024409219	0.17452565678388	0.2672829925057149	0.1031716086400439	0.5075077260081979	0.2533391639036811	0.4490639045193304	-2.068172384600325	0.003039686949903617	-0.3511730397348569	0.9082651223404448	-2.005077454039033	-2.005077454039056	0.3624765848104833	4.300927610427302e-05	-0.5534446314259628	-0.1837585768265979	-0.1170998620738675	-0.001910740376140539	0.02428407550665892	-0.2624163021630325	0.004500477001410314	-0.01481740608137552	0.1696322497289655	-16.35537794650416	-39.13653223605909	-11.24000225723885	-0.1250922289079167	-1.456526621401429	-597.5686018506425	54.99598906456148	-0.1834579269376675	0.3726769304637356	-0.9207468937907497	0.2177957083596021	-0.1437462065437547	-0.315612103432252	1.156515721606657	-0.1229132310126361	-0.1229132310121867	0.5364826141634726	0.011810486756561	-0.2803457616951959	-0.1353817985314313	6.744136616339856e-08	-3.959726016601046e-08	-1.846493881719831e-06	-5.712737068830245e-07	2.104814825818693e-07	1.447407280799664e-07	-9.989798773584726e-07
1.58	-0.0654128398632733	0.06043828073838342	0.8557978859242095	0.6526149459667372	-0.2393909452666573	-0.1164477175005422	-0.5543777707639742	0.7755258892248724	0.7755258892248704	0.04356122816510719	0.1745261753576491	0.2617356460870924	0.1013280906071976	0.50538401953506	0.2568967255089044	0.4395936774840863	-2.064956559305292	0.001674482684799388	-0.3543326943021246	0.9193483842454793	-2.005308065496941	-2.005308065496961	0.3675085582854787	8.464232986697563e-05	-0.5559257649732345	-0.1848823157835371	-0.1094961139594777	-0.003425313191163817	0.02365834465567257	-0.2592721407675869	0.006621910723358295	-0.01547084847760533	0.1627232460790575	-17.34105973280909	-38.24194923110167	-11.24907704372346	-0.2585212526164594	-1.418255621797205	-593.5741659989151	54.86688991214776	-0.2451979155037382	0.3383340195952832	-0.9739327217040231	0.4331839545380675	-0.1263843522137986	-0.3010390885121387	1.063918695938441	0.08204342796892031	0.08204342796892029	0.4725937699294588	-0.01822398191554868	-0.2134177463287922	-0.08467890782075682	1.224834340184687e-07	7.346949054746274e-08	-1.356037229453077e-06	5.007043003588562e-07	8.5874937816006e-08	3.234127089815687e-07	-9.70729925910224e-07
